<svg height="480pt" viewBox="0 0 480 480.152" width="480pt" xmlns="http://www.w3.org/2000/svg"><path d="m280.074219 80c-110.457031 0-200 89.542969-200 200s89.542969 200 200 200 200-89.542969 200-200c-.121094-110.40625-89.59375-199.875-200-200zm175.257812 256h-66.03125c-1.335937-3.3125-3.195312-6.386719-5.511719-9.105469-13.695312-14.683593-35.09375-19.269531-53.601562-11.488281-8.605469 3.640625-14.976562 11.140625-17.183594 20.21875v.375h-64.929687c-4.417969 0-8 3.582031-8 8s3.582031 8 8 8h66.777343c1.332032 3.316406 3.195313 6.394531 5.511719 9.113281 6.597657 7.292969 15.371094 12.273438 25.015625 14.199219 3.449219.742188 6.964844 1.117188 10.488282 1.121094 6.25.050781 12.4375-1.253906 18.136718-3.816406 8.605469-3.644532 14.980469-11.144532 17.183594-20.226563 0-.117187 0-.246094 0-.375h58.167969c-4.785157 11.226563-10.683594 21.945313-17.597657 32h-39.683593c-4.417969 0-8 3.582031-8 8s3.582031 8 8 8h27.3125c-10.484375 12.171875-22.503907 22.925781-35.757813 32h-127.554687c-4.417969 0-8 3.582031-8 8s3.582031 8 8 8h98.90625c-66.226563 29.558594-143.640625 17.441406-197.667969-30.933594-54.027344-48.378906-74.585938-123.992187-52.492188-193.066406h63.253907c4.421875 0 8-3.582031 8-8s-3.578125-8-8-8h-57.308594c4.789063-11.222656 10.683594-21.941406 17.597656-32h135.710938c4.421875 0 8-3.582031 8-8s-3.578125-8-8-8h-123.308594c10.480469-12.171875 22.503906-22.925781 35.757813-32h127.550781c4.421875 0 8-3.582031 8-8s-3.578125-8-8-8h-98.902344c66.226563-29.558594 143.636719-17.441406 197.667969 30.9375 54.027344 48.378906 74.585937 123.988281 52.492187 193.0625zm-79.792969 13.023438c-1.210937 4.128906-4.261718 7.46875-8.261718 9.046874-12.0625 4.816407-25.835938 1.867188-34.867188-7.460937-3.273437-2.90625-4.730468-7.351563-3.8125-11.628906.917969-4.28125 4.070313-7.738281 8.246094-9.042969 3.613281-1.59375 7.523438-2.390625 11.472656-2.335938 2.382813 0 4.757813.253907 7.085938.757813 6.253906 1.222656 11.957031 4.386719 16.304687 9.039063 3 3.078124 4.414063 7.367187 3.832031 11.625zm0 0"/><path d="m8.074219 16h64c4.421875 0 8-3.582031 8-8s-3.578125-8-8-8h-64c-4.417969 0-8.0000002 3.582031-8.0000002 8s3.5820312 8 8.0000002 8zm0 0"/><path d="m56.074219 40c0 4.417969 3.582031 8 8 8h104c4.421875 0 8-3.582031 8-8s-3.578125-8-8-8h-104c-4.417969 0-8 3.582031-8 8zm0 0"/><path d="m24.074219 64c-4.417969 0-8 3.582031-8 8s3.582031 8 8 8h72c4.421875 0 8-3.582031 8-8s-3.578125-8-8-8zm0 0"/><path d="m104.074219 416h-32c-4.417969 0-8 3.582031-8 8s3.582031 8 8 8h32c4.421875 0 8-3.582031 8-8s-3.578125-8-8-8zm0 0"/><path d="m72.074219 448h-64c-4.417969 0-8.0000002 3.582031-8.0000002 8s3.5820312 8 8.0000002 8h64c4.421875 0 8-3.582031 8-8s-3.578125-8-8-8zm0 0"/><path d="m352.074219 160h-48c-4.417969 0-8 3.582031-8 8s3.582031 8 8 8h48c4.421875 0 8-3.582031 8-8s-3.578125-8-8-8zm0 0"/><path d="m336.074219 208h-128c-4.417969 0-8 3.582031-8 8s3.582031 8 8 8h128c4.421875 0 8-3.582031 8-8s-3.578125-8-8-8zm0 0"/><path d="m184.074219 392c0 4.417969 3.582031 8 8 8h120c4.421875 0 8-3.582031 8-8s-3.578125-8-8-8h-120c-4.417969 0-8 3.582031-8 8zm0 0"/><path d="m384.074219 72h64c4.421875 0 8-3.582031 8-8s-3.578125-8-8-8h-64c-4.417969 0-8 3.582031-8 8s3.582031 8 8 8zm0 0"/><path d="m440.074219 96c0 4.417969 3.582031 8 8 8h24c4.421875 0 8-3.582031 8-8s-3.578125-8-8-8h-24c-4.417969 0-8 3.582031-8 8zm0 0"/><path d="m472.074219 280.152344c0 106.039062-85.960938 192-192 192-106.035157 0-192-85.960938-192-192 0-106.039063 85.964843-192 192-192 106.039062 0 192 85.960937 192 192zm0 0" fill="#506f86"/><path d="m357.101562 320.683594c-17.28125-3.703125-33.542968 3.804687-36.316406 16.765625-2.777344 12.960937 8.984375 26.46875 26.265625 30.167969 17.28125 3.703124 33.539063-3.804688 36.316407-16.765626 2.773437-12.960937-8.984376-26.46875-26.265626-30.167968zm0 0" fill="#fbb040"/><path d="m280.074219 80.152344c-110.457031 0-200 89.542968-200 200 0 110.457031 89.542969 200 200 200s200-89.542969 200-200c-.121094-110.40625-89.59375-199.875-200-200zm175.257812 256h-66.03125c-1.335937-3.3125-3.195312-6.386719-5.511719-9.105469-13.695312-14.683594-35.09375-19.269531-53.601562-11.488281-8.605469 3.640625-14.976562 11.136718-17.183594 20.21875v.375h-64.929687c-4.417969 0-8 3.582031-8 8 0 4.417968 3.582031 8 8 8h66.800781c5.855469 12.199218 17.195312 20.859375 30.503906 23.296875 3.449219.742187 6.964844 1.117187 10.488282 1.117187 6.25.050782 12.4375-1.25 18.136718-3.8125 8.605469-3.644531 14.980469-11.144531 17.183594-20.226562 0-.121094 0-.246094 0-.375h58.167969c-4.785157 11.226562-10.683594 21.945312-17.597657 32h-39.683593c-4.417969 0-8 3.582031-8 8 0 4.417968 3.582031 8 8 8h27.3125c-10.484375 12.171875-22.503907 22.925781-35.757813 32h-127.554687c-4.417969 0-8 3.582031-8 8 0 4.417968 3.582031 8 8 8h98.90625c-66.226563 29.558594-143.640625 17.441406-197.667969-30.9375s-74.585938-123.988282-52.492188-193.0625h63.253907c4.421875 0 8-3.582032 8-8 0-4.417969-3.578125-8-8-8h-57.308594c4.789063-11.222656 10.683594-21.945313 17.597656-32h135.710938c4.421875 0 8-3.582032 8-8 0-4.417969-3.578125-8-8-8h-123.308594c10.480469-12.171875 22.503906-22.925782 35.757813-32h127.550781c4.421875 0 8-3.582032 8-8 0-4.417969-3.578125-8-8-8h-98.902344c66.226563-29.558594 143.636719-17.441406 197.667969 30.933594 54.027344 48.378906 74.585937 123.992187 52.492187 193.066406zm-79.792969 13.023437c-1.210937 4.128907-4.261718 7.46875-8.261718 9.046875-5.863282 2.476563-12.359375 3.035156-18.5625 1.601563-12.726563-2.71875-21.941406-12.191407-20.117188-20.671875 1.210938-4.121094 4.253906-7.457032 8.246094-9.039063 3.613281-1.59375 7.523438-2.390625 11.472656-2.335937 2.382813 0 4.757813.253906 7.085938.757812 6.253906 1.222656 11.957031 4.386719 16.304687 9.039063 2.996094 3.074219 4.40625 7.351562 3.832031 11.601562zm0 0"/><path d="m8.074219 16.152344h64c4.421875 0 8-3.582032 8-8 0-4.417969-3.578125-8-8-8h-64c-4.417969 0-8.0000002 3.582031-8.0000002 8 0 4.417968 3.5820312 8 8.0000002 8zm0 0"/><path d="m56.074219 40.152344c0 4.417968 3.582031 8 8 8h104c4.421875 0 8-3.582032 8-8 0-4.417969-3.578125-8-8-8h-104c-4.417969 0-8 3.582031-8 8zm0 0"/><path d="m24.074219 64.152344c-4.417969 0-8 3.582031-8 8 0 4.417968 3.582031 8 8 8h72c4.421875 0 8-3.582032 8-8 0-4.417969-3.578125-8-8-8zm0 0"/><path d="m104.074219 416.152344h-32c-4.417969 0-8 3.582031-8 8 0 4.417968 3.582031 8 8 8h32c4.421875 0 8-3.582032 8-8 0-4.417969-3.578125-8-8-8zm0 0"/><path d="m72.074219 448.152344h-64c-4.417969 0-8.0000002 3.582031-8.0000002 8 0 4.417968 3.5820312 8 8.0000002 8h64c4.421875 0 8-3.582032 8-8 0-4.417969-3.578125-8-8-8zm0 0"/><path d="m352.074219 160.152344h-48c-4.417969 0-8 3.582031-8 8 0 4.417968 3.582031 8 8 8h48c4.421875 0 8-3.582032 8-8 0-4.417969-3.578125-8-8-8zm0 0"/><path d="m336.074219 208.152344h-128c-4.417969 0-8 3.582031-8 8 0 4.417968 3.582031 8 8 8h128c4.421875 0 8-3.582032 8-8 0-4.417969-3.578125-8-8-8zm0 0"/><path d="m184.074219 392.152344c0 4.417968 3.582031 8 8 8h120c4.421875 0 8-3.582032 8-8 0-4.417969-3.578125-8-8-8h-120c-4.417969 0-8 3.582031-8 8zm0 0"/><path d="m384.074219 72.152344h64c4.421875 0 8-3.582032 8-8 0-4.417969-3.578125-8-8-8h-64c-4.417969 0-8 3.582031-8 8 0 4.417968 3.582031 8 8 8zm0 0"/><path d="m440.074219 96.152344c0 4.417968 3.582031 8 8 8h24c4.421875 0 8-3.582032 8-8 0-4.417969-3.578125-8-8-8h-24c-4.417969 0-8 3.582031-8 8zm0 0"/></svg>