<svg height="480pt" viewBox="0 0 480 480.152" width="480pt" xmlns="http://www.w3.org/2000/svg"><path d="m373.109375 185.335938c36.503906-59.816407 44.796875-106.734376 22.542969-128.992188-25.449219-25.433594-84.800782-10.160156-155.199219 39.671875h-.402344c-79.488281.09375-143.90625 64.507813-144 144v.320313c-50 70.550781-65.34375 129.984374-39.902343 155.417968 9.289062 8.609375 21.679687 13.070313 34.328124 12.359375 24.550782 0 57.222657-11.9375 94.976563-35.050781 17.296875 7.25 35.867187 10.964844 54.621094 10.9375 79.496093-.089844 143.914062-64.507812 144-144-.007813-18.765625-3.734375-37.347656-10.964844-54.664062zm11.199219-117.679688c15.199218 15.199219 7.617187 53.046875-19.542969 100.398438-21.257813-36.679688-57.550781-62.179688-99.265625-69.742188 55.015625-35.59375 101.496094-47.976562 118.839844-30.65625zm-144.234375 44.34375c.753906 0 1.425781 0 2.144531.054688h.21875c.078125 0 .183594.050781.277344.050781 47.964844 1.058593 91.316406 28.820312 112.351562 71.933593-22.171875 34.078126-47.949218 65.671876-76.886718 94.234376-28.507813 28.859374-60.023438 54.582031-94.015626 76.726562-43.179687-21.015625-70.972656-64.421875-72-112.433594 0-.109375-.054687-.207031-.054687-.320312 0-.109375 0-.148438 0-.230469-.035156-.65625-.035156-1.367187-.035156-2.015625.085937-70.65625 57.34375-127.917969 128-128zm-172.582031 272.425781c-17.328126-17.328125-4.863282-63.9375 30.886718-119.058593 7.539063 41.777343 33.078125 78.117187 69.824219 99.367187-46.902344 26.898437-85.726563 34.707031-100.710937 19.691406zm172.582031-16.425781c-12.820313.035156-25.570313-1.878906-37.8125-5.679688 31.300781-21.429687 60.5-45.785156 87.199219-72.734374 27.015624-26.757813 51.421874-56.027344 72.878906-87.417969 3.816406 12.246093 5.75 25.003906 5.734375 37.832031-.078125 70.660156-57.339844 127.921875-128 128zm0 0"/><path d="m48.074219 24c0-13.253906-10.742188-24-24-24-13.253907 0-24.0000002 10.746094-24.0000002 24s10.7460932 24 24.0000002 24c13.257812 0 24-10.746094 24-24zm-24 8c-4.417969 0-8-3.582031-8-8s3.582031-8 8-8c4.421875 0 8 3.582031 8 8s-3.578125 8-8 8zm0 0"/><path d="m136.074219 96c17.675781 0 32-14.328125 32-32s-14.324219-32-32-32c-17.671875 0-32 14.328125-32 32s14.328125 32 32 32zm0-48c8.839843 0 16 7.164062 16 16s-7.160157 16-16 16c-8.835938 0-16-7.164062-16-16s7.164062-16 16-16zm0 0"/><path d="m80.074219 112c0-13.253906-10.742188-24-24-24-13.253907 0-24 10.746094-24 24s10.746093 24 24 24c13.257812 0 24-10.746094 24-24zm-32 0c0-4.417969 3.582031-8 8-8 4.421875 0 8 3.582031 8 8s-3.578125 8-8 8c-4.417969 0-8-3.582031-8-8zm0 0"/><path d="m448.074219 344c-17.671875 0-32 14.328125-32 32s14.328125 32 32 32c17.675781 0 32-14.328125 32-32s-14.324219-32-32-32zm0 48c-8.835938 0-16-7.164062-16-16s7.164062-16 16-16c8.839843 0 16 7.164062 16 16s-7.160157 16-16 16zm0 0"/><path d="m392.074219 432c-13.253907 0-24 10.746094-24 24s10.746093 24 24 24c13.257812 0 24-10.746094 24-24s-10.742188-24-24-24zm0 32c-4.417969 0-8-3.582031-8-8s3.582031-8 8-8c4.421875 0 8 3.582031 8 8s-3.578125 8-8 8zm0 0"/><path d="m251.972656 226.863281c5.230469 3.507813 11.382813 5.378907 17.679688 5.382813 2.128906 0 4.253906-.210938 6.34375-.628906 17.332031-3.464844 28.570312-20.328126 25.105468-37.65625-.554687-2.808594-2.570312-5.109376-5.28125-6.027344-2.714843-.917969-5.710937-.320313-7.859374 1.574218-2.144532 1.894532-3.121094 4.789063-2.550782 7.597657 1.734375 8.664062-3.886718 17.09375-12.554687 18.828125-8.664063 1.730468-17.09375-3.890625-18.828125-12.558594-.917969-4.273438-5.101563-7.019531-9.390625-6.164062-4.289063.859374-7.09375 5-6.296875 9.300781 1.644531 8.332031 6.554687 15.660156 13.632812 20.351562zm0 0"/><path d="m169.316406 294.824219c16.632813 5.96875 34.957032-2.671875 40.925782-19.304688 1.023437-2.703125.507812-5.746093-1.347657-7.960937-1.851562-2.21875-4.757812-3.261719-7.601562-2.730469-2.839844.527344-5.171875 2.546875-6.105469 5.285156-1.878906 5.445313-6.542969 9.460938-12.207031 10.511719-5.664063 1.046875-11.457031-1.027344-15.164063-5.4375-3.707031-4.414062-4.757812-10.476562-2.75-15.875 1.496094-4.160156-.667968-8.742188-4.828125-10.238281-4.15625-1.492188-8.742187.671875-10.234375 4.828125-5.964844 16.632812 2.679688 34.953125 19.3125 40.921875zm0 0"/><path d="m189.5625 191.992188c11.097656-.023438 21.390625-5.792969 27.199219-15.246094 5.8125-9.457032 6.308593-21.246094 1.3125-31.152344-1.230469-2.644531-3.804688-4.410156-6.714844-4.601562-2.910156-.195313-5.695313 1.207031-7.269531 3.664062-1.574219 2.457031-1.6875 5.574219-.292969 8.136719 3.898437 7.878906.710937 17.429687-7.140625 21.386719-7.851562 3.957031-17.421875.835937-21.4375-6.988282-1.273438-2.574218-3.828125-4.265625-6.695312-4.4375-2.867188-.167968-5.605469 1.210938-7.171876 3.617188-1.570312 2.402344-1.730468 5.464844-.417968 8.019531 5.453125 10.804687 16.527344 17.609375 28.628906 17.601563zm0 0"/><path d="m376.074219 240.113281c0 75.109375-60.886719 136-136 136-75.109375 0-136-60.890625-136-136 0-75.113281 60.890625-136 136-136 75.113281 0 136 60.886719 136 136zm0 0" fill="#fbb040"/><g fill="#506f86"><path d="m40.074219 24.152344c0 8.835937-7.160157 16-16 16-8.835938 0-16-7.164063-16-16 0-8.835938 7.164062-16 16-16 8.839843 0 16 7.164062 16 16zm0 0"/><path d="m160.074219 64.152344c0 13.253906-10.742188 24-24 24-13.253907 0-24-10.746094-24-24s10.746093-24 24-24c13.257812 0 24 10.746094 24 24zm0 0"/><path d="m72.074219 112.152344c0 8.835937-7.160157 16-16 16-8.835938 0-16-7.164063-16-16 0-8.835938 7.164062-16 16-16 8.839843 0 16 7.164062 16 16zm0 0"/><path d="m472.074219 376.152344c0 13.253906-10.742188 24-24 24-13.253907 0-24-10.746094-24-24s10.746093-24 24-24c13.257812 0 24 10.746094 24 24zm0 0"/><path d="m408.074219 456.152344c0 8.835937-7.160157 16-16 16-8.835938 0-16-7.164063-16-16 0-8.835938 7.164062-16 16-16 8.839843 0 16 7.164062 16 16zm0 0"/></g><path d="m373.109375 185.488281c36.503906-59.816406 44.796875-106.734375 22.542969-128.992187-25.433594-25.417969-84.800782-10.175782-155.199219 39.671875h-.402344c-79.488281.09375-143.90625 64.507812-144 144v.328125c-50 70.550781-65.34375 129.984375-39.902343 155.40625 9.292968 8.601562 21.6875 13.050781 34.328124 12.328125 24.550782 0 57.222657-11.933594 94.976563-35.046875 17.292969 7.257812 35.867187 10.988281 54.621094 10.96875 79.496093-.089844 143.914062-64.507813 144-144-.007813-18.765625-3.734375-37.347656-10.964844-54.664063zm11.199219-117.679687c15.199218 15.199218 7.617187 53.046875-19.542969 100.398437-21.261719-36.675781-57.550781-62.171875-99.265625-69.742187 55-35.601563 101.496094-47.953125 118.839844-30.65625zm-144.234375 44.34375c.753906 0 1.425781 0 2.144531.054687h.210938c.070312 0 .191406.050781.285156.050781 47.964844 1.058594 91.316406 28.816407 112.351562 71.933594-22.171875 34.082032-47.949218 65.679688-76.886718 94.25-28.507813 28.855469-60.03125 54.574219-94.023438 76.710938-43.175781-21.019532-70.96875-64.421875-72-112.433594 0-.109375-.054688-.207031-.054688-.320312 0-.109376 0-.152344 0-.230469-.027343-.65625-.027343-1.367188-.027343-2.015625.085937-70.65625 57.34375-127.917969 128-128zm-172.582031 272.421875c-17.328126-17.328125-4.863282-63.933594 30.886718-119.054688 7.535156 41.785157 33.074219 78.140625 69.832032 99.390625-46.910157 26.875-85.734376 34.691406-100.71875 19.664063zm172.582031-16.421875c-12.820313.035156-25.570313-1.878906-37.8125-5.679688 31.304687-21.429687 60.503906-45.789062 87.199219-72.746094 27.015624-26.75 51.421874-56.019531 72.878906-87.40625 3.816406 12.246094 5.75 25.003907 5.734375 37.832032-.078125 70.660156-57.339844 127.921875-128 128zm0 0"/><path d="m48.074219 24.152344c0-13.253906-10.742188-24-24-24-13.253907 0-24.0000002 10.746094-24.0000002 24s10.7460932 24 24.0000002 24c13.257812 0 24-10.746094 24-24zm-24 8c-4.417969 0-8-3.582032-8-8 0-4.417969 3.582031-8 8-8 4.421875 0 8 3.582031 8 8 0 4.417968-3.578125 8-8 8zm0 0"/><path d="m136.074219 96.152344c17.675781 0 32-14.328125 32-32s-14.324219-32-32-32c-17.671875 0-32 14.328125-32 32s14.328125 32 32 32zm0-48c8.839843 0 16 7.164062 16 16 0 8.835937-7.160157 16-16 16-8.835938 0-16-7.164063-16-16 0-8.835938 7.164062-16 16-16zm0 0"/><path d="m80.074219 112.152344c0-13.253906-10.742188-24-24-24-13.253907 0-24 10.746094-24 24s10.746093 24 24 24c13.257812 0 24-10.746094 24-24zm-32 0c0-4.417969 3.582031-8 8-8 4.421875 0 8 3.582031 8 8 0 4.417968-3.578125 8-8 8-4.417969 0-8-3.582032-8-8zm0 0"/><path d="m448.074219 344.152344c-17.671875 0-32 14.328125-32 32s14.328125 32 32 32c17.675781 0 32-14.328125 32-32s-14.324219-32-32-32zm0 48c-8.835938 0-16-7.164063-16-16 0-8.835938 7.164062-16 16-16 8.839843 0 16 7.164062 16 16 0 8.835937-7.160157 16-16 16zm0 0"/><path d="m392.074219 432.152344c-13.253907 0-24 10.746094-24 24s10.746093 24 24 24c13.257812 0 24-10.746094 24-24s-10.742188-24-24-24zm0 32c-4.417969 0-8-3.582032-8-8 0-4.417969 3.582031-8 8-8 4.421875 0 8 3.582031 8 8 0 4.417968-3.578125 8-8 8zm0 0"/><path d="m251.972656 227.015625c5.230469 3.507813 11.382813 5.378906 17.679688 5.382813 2.128906 0 4.253906-.210938 6.34375-.628907 17.332031-3.46875 28.570312-20.328125 25.105468-37.65625-.878906-4.324219-5.089843-7.117187-9.414062-6.25-4.324219.863281-7.128906 5.066407-6.277344 9.394531 1.730469 8.664063-3.890625 17.09375-12.558594 18.820313-8.664062 1.730469-17.09375-3.890625-18.824218-12.558594-.878906-4.320312-5.085938-7.117187-9.410156-6.25-4.324219.867188-7.132813 5.070313-6.277344 9.394531 1.644531 8.332032 6.554687 15.660157 13.632812 20.351563zm0 0"/><path d="m169.316406 294.976562c16.632813 5.96875 34.957032-2.671874 40.925782-19.304687 1.023437-2.703125.507812-5.746094-1.347657-7.964844-1.851562-2.214843-4.757812-3.257812-7.601562-2.726562-2.839844.527343-5.171875 2.546875-6.105469 5.285156-2.984375 8.316406-12.144531 12.640625-20.464844 9.65625-8.316406-2.988281-12.640625-12.148437-9.65625-20.464844 1.496094-4.160156-.667968-8.742187-4.828125-10.238281-4.15625-1.492188-8.742187.667969-10.234375 4.828125-5.96875 16.636719 2.675782 34.960937 19.3125 40.929687zm0 0"/><path d="m189.5625 192.113281c11.097656-.023437 21.390625-5.792969 27.199219-15.246093 5.8125-9.457032 6.308593-21.246094 1.3125-31.15625-1.230469-2.640626-3.804688-4.40625-6.714844-4.601563s-5.695313 1.210937-7.269531 3.667969c-1.574219 2.453125-1.6875 5.570312-.292969 8.132812 2.621094 5.113282 2.300781 11.234375-.835937 16.046875-3.140626 4.808594-8.613282 7.570313-14.347657 7.230469s-10.84375-3.726562-13.394531-8.875c-1.273438-2.574219-3.828125-4.269531-6.695312-4.4375-2.867188-.167969-5.605469 1.210938-7.171876 3.613281-1.570312 2.40625-1.730468 5.46875-.417968 8.023438 5.445312 10.808593 16.527344 17.621093 28.628906 17.601562zm0 0"/></svg>