<svg height="480pt" viewBox="0 0 480 480" width="480pt" xmlns="http://www.w3.org/2000/svg" xmlns:xlink="http://www.w3.org/1999/xlink"><linearGradient id="a"><stop offset="0" stop-color="#2193b0"/><stop offset="1" stop-color="#6dd5ed"/></linearGradient><linearGradient id="b" gradientUnits="userSpaceOnUse" x1="416" x2="480" xlink:href="#a" y1="384" y2="384"/><linearGradient id="c" gradientUnits="userSpaceOnUse" x1="352" x2="400" xlink:href="#a" y1="456" y2="456"/><linearGradient id="d" gradientUnits="userSpaceOnUse" x1="32" x2="96" xlink:href="#a" y1="32" y2="32"/><linearGradient id="e" gradientUnits="userSpaceOnUse" x1="0" x2="48" xlink:href="#a" y1="96" y2="96"/><linearGradient id="f" gradientUnits="userSpaceOnUse" x1="37.296" x2="439.904" xlink:href="#a" y1="238.712" y2="238.712"/><linearGradient id="g" gradientUnits="userSpaceOnUse" x1="220.688" x2="248" xlink:href="#a" y1="177.888" y2="177.888"/><linearGradient id="h" gradientUnits="userSpaceOnUse" x1="282.912" x2="310.224" xlink:href="#a" y1="251.424" y2="251.424"/><path d="m448 352c-17.671875 0-32 14.328125-32 32s14.328125 32 32 32 32-14.328125 32-32-14.328125-32-32-32zm0 48c-8.835938 0-16-7.164062-16-16s7.164062-16 16-16 16 7.164062 16 16-7.164062 16-16 16zm0 0" fill="url(#b)"/><path d="m376 432c-13.253906 0-24 10.746094-24 24s10.746094 24 24 24 24-10.746094 24-24-10.746094-24-24-24zm0 32c-4.417969 0-8-3.582031-8-8s3.582031-8 8-8 8 3.582031 8 8-3.582031 8-8 8zm0 0" fill="url(#c)"/><path d="m64 64c17.671875 0 32-14.328125 32-32s-14.328125-32-32-32-32 14.328125-32 32 14.328125 32 32 32zm0-48c8.835938 0 16 7.164062 16 16s-7.164062 16-16 16-16-7.164062-16-16 7.164062-16 16-16zm0 0" fill="url(#d)"/><path d="m48 96c0-13.253906-10.746094-24-24-24s-24 10.746094-24 24 10.746094 24 24 24 24-10.746094 24-24zm-24 8c-4.417969 0-8-3.582031-8-8s3.582031-8 8-8 8 3.582031 8 8-3.582031 8-8 8zm0 0" fill="url(#e)"/><path d="m381.425781 98.6875c-2.707031-2.703125-5.480469-5.289062-8.296875-7.800781 13.960938-24.71875 16.6875-40.375 8.296875-48.796875-9.601562-9.601563-28.898437-4.617188-60.371093 15.199218-75.585938-33.5625-164.035157-17.121093-222.507813 41.363282-58.476563 58.484375-74.910156 146.933594-41.339844 222.515625-19.816406 31.488281-24.75 50.808593-15.199219 60.367187 3.421876 3.296875 8.054688 5.035156 12.800782 4.800782 12.867187-1.40625 25.214844-5.878907 36-13.039063 2.496094 2.800781 5.070312 5.597656 7.757812 8.246094 78.109375 78.109375 204.75 78.109375 282.859375 0 78.105469-78.109375 78.105469-204.746094 0-282.855469zm-12.625-45.464844c.800781 0 1.160157.082032 1.152344.058594.09375.246094 2.117187 6.261719-9.386719 27.328125-7.207031-5.457031-14.785156-10.417969-22.671875-14.839844 19.519531-11.304687 28.121094-12.546875 30.90625-12.546875zm-258.945312 56.800782c65.429687-65.347657 169.210937-71.957032 242.402343-15.429688-23.707031 37.476562-67.203124 89.125-117.96875 139.886719-50.769531 50.757812-102.402343 94.253906-139.890624 117.96875-3.429688-4.449219-6.6875-8.992188-9.664063-13.671875l126.976563-126.953125c3.03125-3.140625 2.988281-8.128907-.097657-11.214844-3.085937-3.085937-8.074219-3.128906-11.214843-.097656l-123.894532 123.902343c-5.382812-10.429687-9.746094-21.355468-13.03125-32.621093.414063-.230469.804688-.496094 1.167969-.800781l169.703125-169.671876c3.03125-3.140624 2.988281-8.128906-.097656-11.214843-3.085938-3.085938-8.074219-3.128907-11.214844-.097657l-163.832031 163.792969c-2.59375-14.304687-3.496094-28.867187-2.6875-43.386719.894531-.378906 1.707031-.921874 2.398437-1.597656l67.953125-67.90625c2.082031-2.007812 2.914063-4.980468 2.183594-7.777344-.734375-2.796874-2.917969-4.980468-5.714844-5.714843-2.796875-.730469-5.769531.101562-7.78125 2.183593l-56.230469 56.238282c6.789063-36.320313 24.417969-69.734375 50.566407-95.839844zm-55.253907 260.402343c-.800781 0-1.160156-.097656-1.160156-.066406-.121094-.304687-2.402344-7.199219 12.191406-32.359375 4.433594 7.902344 9.402344 15.492188 14.871094 22.71875-7.777344 5.175781-16.640625 8.496094-25.902344 9.707031zm315.511719-.203125c-71.910156 71.734375-188.316406 71.734375-260.226562 0-1.757813-1.765625-3.277344-3.671875-4.957031-5.496094 38.269531-24.613281 90.0625-68.292968 140.726562-118.957031 50.664062-50.664062 94.398438-102.402343 118.960938-140.730469 1.824218 1.679688 3.726562 3.199219 5.496093 4.960938 9.488281 9.542969 17.902344 20.09375 25.085938 31.472656l-76 76c-2.078125 2.007813-2.914063 4.980469-2.179688 7.78125.730469 2.796875 2.914063 4.980469 5.710938 5.710938 2.796875.734375 5.773437-.101563 7.78125-2.179688l72.992187-72.992187c5.382813 10.429687 9.746094 21.355469 13.03125 32.621093-.414062.230469-.804687.5-1.167968.800782l-147.078126 147.066406c-2.082031 2.007812-2.914062 4.980469-2.183593 7.777344.734375 2.796875 2.917969 4.984375 5.714843 5.714844 2.796876.730468 5.769532-.101563 7.78125-2.179688l141.199219-141.167969c2.59375 14.304688 3.496094 28.867188 2.6875 43.382813-.894531.378906-1.707031.921875-2.398437 1.597656l-67.953125 67.90625c-2.082031 2.007812-2.914063 4.984375-2.183594 7.78125.734375 2.796875 2.917969 4.980469 5.714844 5.710938 2.796875.734374 5.769531-.101563 7.78125-2.179688l56.230469-56.234375c-6.789063 36.320313-24.421876 69.730469-50.566407 95.832031zm0 0" fill="url(#f)"/><path d="m223.03125 177.886719c-2.078125 2.011719-2.914062 4.984375-2.179688 7.78125.730469 2.796875 2.914063 4.980469 5.710938 5.714843 2.796875.730469 5.773438-.101562 7.78125-2.183593l11.3125-11.3125c3.03125-3.136719 2.988281-8.128907-.097656-11.214844-3.085938-3.085937-8.074219-3.128906-11.214844-.097656zm0 0" fill="url(#g)"/><path d="m290.910156 265.078125c2.125 0 4.15625-.839844 5.65625-2.34375l11.3125-11.308594c3.03125-3.140625 2.988282-8.128906-.097656-11.214843-3.085938-3.085938-8.074219-3.128907-11.214844-.097657l-11.308594 11.3125c-2.289062 2.285157-2.972656 5.726563-1.734374 8.714844 1.238281 2.988281 4.152343 4.9375 7.386718 4.9375zm0 0" fill="url(#h)"/></svg>